<?xml version="1.0" standalone="no"?>
<!DOCTYPE svg PUBLIC "-//W3C//DTD SVG 20010904//EN"
 "http://www.w3.org/TR/2001/REC-SVG-20010904/DTD/svg10.dtd">
<svg version="1.0" xmlns="http://www.w3.org/2000/svg"
 width="260.000000pt" height="260.000000pt" viewBox="0 0 260.000000 260.000000"
 preserveAspectRatio="xMidYMid meet">
<metadata>
Created by potrace 1.11, written by Peter Selinger 2001-2013
</metadata>
<g transform="translate(0.000000,260.000000) scale(0.100000,-0.100000)"
fill="#000000" stroke="none">
<path d="M235 2456 c-94 -30 -159 -86 -203 -175 l-27 -56 -3 -905 c-2 -626 1
-921 8 -957 22 -105 123 -209 229 -235 46 -12 236 -14 1081 -13 l1025 1 62 28
c72 33 134 94 166 164 l22 47 0 935 0 935 -26 55 c-34 71 -84 121 -156 157
l-58 28 -1040 2 c-819 1 -1048 -1 -1080 -11z"/>
</g>
</svg>
